<svg width="118" height="118" viewBox="0 0 118 118" fill="none" xmlns="http://www.w3.org/2000/svg">
<rect width="118" height="118" rx="17.7" fill="#D9D9D9"/>
<path d="M52.5718 76.1254C50.5165 75.8974 48.495 75.4298 46.5483 74.7322C46.6076 73.333 46.6432 71.8746 46.6432 70.3568V68.3589C48.481 69.2363 50.479 69.847 52.5718 70.1493V55.5353C52.5718 53.1767 53.5087 50.9147 55.1765 49.247C56.8442 47.5792 59.1062 46.6423 61.4647 46.6423H76.0788C75.606 43.3572 74.3521 40.2334 72.4223 37.5331C70.4925 34.8328 67.9431 32.6349 64.9881 31.1237C62.0331 29.6125 58.7587 28.8322 55.4398 28.8483C52.1208 28.8643 48.8542 29.6763 45.9139 31.216C45.445 29.2769 44.6726 27.4241 43.6255 25.7261C47.4688 23.8077 51.7186 22.8458 56.0134 22.922C60.3083 22.9982 64.5212 24.1103 68.2941 26.1638C72.0669 28.2173 75.2882 31.1514 77.684 34.7168C80.0798 38.2821 81.5792 42.3732 82.0549 46.6423H91.1079C93.4665 46.6423 95.7284 47.5792 97.3962 49.247C99.0639 50.9147 100.001 53.1767 100.001 55.5353V85.1784C100.001 87.537 99.0639 89.7989 97.3962 91.4667C95.7284 93.1344 93.4665 94.0714 91.1079 94.0714H61.4647C59.1062 94.0714 56.8442 93.1344 55.1765 91.4667C53.5087 89.7989 52.5718 87.537 52.5718 85.1784V76.1254ZM82.0549 52.5709C81.3813 58.5861 78.6831 64.1937 74.4032 68.4737C70.1232 72.7536 64.5156 75.4518 58.5004 76.1254V85.1784C58.5004 85.9646 58.8127 86.7186 59.3687 87.2745C59.9246 87.8304 60.6786 88.1427 61.4647 88.1427H91.1079C91.8941 88.1427 92.6481 87.8304 93.204 87.2745C93.7599 86.7186 94.0722 85.9646 94.0722 85.1784V55.5353C94.0722 54.7491 93.7599 53.9951 93.204 53.4392C92.6481 52.8833 91.8941 52.5709 91.1079 52.5709H82.0549ZM76.0788 52.5709H61.4647C60.6786 52.5709 59.9246 52.8833 59.3687 53.4392C58.8127 53.9951 58.5004 54.7491 58.5004 55.5353V70.1493C62.9349 69.5084 67.0431 67.4501 70.2113 64.2818C73.3795 61.1136 75.4379 57.0054 76.0788 52.5709V52.5709ZM39.4992 55.8969C38.8767 53.6084 37.8688 51.3141 36.1376 49.5533C38.9359 46.9032 40.7145 42.682 40.7145 37.7494C40.7145 33.6171 39.8786 30.7773 38.3668 28.5066C37.696 27.53 36.9207 26.6295 36.0546 25.8209C35.7227 25.5005 35.3867 25.1843 35.0468 24.8724C34.6851 24.5344 34.3531 24.2261 33.9203 23.7934C33.031 22.9041 32.9302 22.1926 32.9302 21.8191C32.9312 21.6115 32.9652 21.4054 33.031 21.2085C33.3021 20.6223 33.3743 19.9636 33.2367 19.3326C33.099 18.7016 32.7591 18.1328 32.2686 17.7128C31.778 17.2927 31.1637 17.0443 30.5191 17.0054C29.8744 16.9665 29.2347 17.1391 28.6972 17.4972L28.6853 17.5031L28.6675 17.5149L28.6142 17.5505L28.4363 17.6691C27.547 18.3034 26.6903 18.9821 25.8692 19.7026C24.3871 21.0128 22.4543 22.9515 21.0848 25.2637C19.8893 27.1806 18.9298 29.2349 18.2272 31.382C17.5158 33.5104 17 35.8166 17 37.7494C17 42.682 18.7786 46.8972 21.5769 49.5592C19.8457 51.3141 18.8379 53.6084 18.2154 55.9028C17 60.3612 17 65.8748 17 70.1375V70.3568C17 82.558 19.2825 89.8028 21.8674 94.1129C23.1658 96.2709 24.5175 97.6641 25.6499 98.5416C26.2533 99.0122 26.9099 99.4102 27.6063 99.7273C28.0091 99.8743 28.4299 99.966 28.8573 100C29.3553 100 30.1082 99.7273 30.1082 99.7273C30.8046 99.4102 31.4613 99.0122 32.0647 98.5416C33.1911 97.6641 34.5547 96.2709 35.8471 94.1129C38.432 89.8087 40.7145 82.558 40.7145 70.3568V70.1434C40.7145 65.8748 40.7145 60.3671 39.4992 55.8969ZM25.8159 53.7033C26.4858 53.0274 27.381 52.5709 28.8573 52.5709C30.3394 52.5709 31.2287 53.0334 31.8987 53.6974C32.6457 54.4503 33.2919 55.6716 33.778 57.4561C34.7622 61.0785 34.7859 65.8333 34.7859 70.3568C34.7859 81.8702 32.6219 87.9649 30.7604 91.0655C30.0489 92.2513 29.379 93.0161 28.8573 93.4963C28.1118 92.7795 27.4712 91.9612 26.9542 91.0655C25.0926 87.9589 22.9286 81.8702 22.9286 70.3568C22.9286 65.8333 22.9523 61.0785 23.9365 57.4561C24.4226 55.6775 25.0689 54.4503 25.8159 53.6974V53.7033ZM28.8573 46.6423C26.5747 46.6423 22.9286 44.1049 22.9286 37.7494C22.9286 36.7237 23.2369 35.0993 23.8535 33.2614C24.4154 31.5263 25.19 29.8675 26.1597 28.3228C26.6755 27.4513 27.3455 26.6035 28.0688 25.8269C28.4778 26.5502 29.0173 27.2794 29.7288 27.9908C30.1616 28.4236 30.7248 28.9453 31.205 29.3959L31.9402 30.0836C32.5627 30.6884 33.0429 31.216 33.4282 31.8029C34.1397 32.8642 34.7859 34.4708 34.7859 37.7494C34.7859 44.1049 31.1398 46.6423 28.8573 46.6423Z" fill="#14213D"/>
</svg>
