<svg width="118" height="118" viewBox="0 0 118 118" fill="none" xmlns="http://www.w3.org/2000/svg">
<rect width="118" height="118" rx="17.7" fill="#E7E7E7"/>
<path d="M37.833 50.3334V58.6667C37.833 61.4459 39.4997 67 46.1663 67C52.833 67 54.4997 61.4459 54.4997 58.6667V50.3334M66.9997 50.3334L73.2497 58.6667M73.2497 58.6667L79.4997 67M73.2497 58.6667L79.4997 50.3334M73.2497 58.6667L66.9997 67" stroke="#14213D" stroke-width="8.33333" stroke-linecap="round" stroke-linejoin="round"/>
<path d="M58.6667 100.333C81.6785 100.333 100.333 81.6785 100.333 58.6667C100.333 35.6548 81.6785 17 58.6667 17C35.6548 17 17 35.6548 17 58.6667C17 81.6785 35.6548 100.333 58.6667 100.333Z" stroke="#14213D" stroke-width="8.33333" stroke-linecap="round" stroke-linejoin="round"/>
</svg>
